<svg xmlns="http://www.w3.org/2000/svg" viewBox="0 0 32 32"><g data-name="Layer 2"><path fill="#fcae18" d="M16.55,1.26a15,15,0,1,0,5.69,28.88l.15-.06c.3-.12.58-.26.87-.41A15,15,0,0,0,16.55,1.26Zm5.69,13.91-5.69,5.68L9.48,13.78a1,1,0,0,1,0-1.41,1,1,0,0,1,1.42,0L16.55,18l5.66-5.65,0,0a1,1,0,0,1,1.39,1.43Z"/><path fill="#f94819" d="M31.38,16.34a15,15,0,0,1-8.12,13.33c-.29.15-.57.29-.87.41l-.15.07v-15l1.39-1.39a1,1,0,0,0-1.39-1.43V2.53A15,15,0,0,1,31.38,16.34Z"/><path d="M2.45,16.55h-2a14.93,14.93,0,0,0,.79,4l1.85-.79A12.92,12.92,0,0,1,2.45,16.55Z"/><path d="M15.41.74A15,15,0,0,0,.53,13.93h2a13,13,0,1,1,1.6,8.26L2.31,23A15,15,0,1,0,15.41.74Z"/><path d="M22.5,13.06l-7.07,7.07L8.36,13.06a1,1,0,0,1,0-1.41h0a1,1,0,0,1,1.41,0l5.66,5.66,5.66-5.66a1,1,0,0,1,1.41,0h0A1,1,0,0,1,22.5,13.06Z"/></g></svg>