<svg xmlns="http://www.w3.org/2000/svg" data-name="Layer 1" viewBox="0 0 512 512"><path fill="#4a4f60" d="M303.325,504.5H273.793a15.69293,15.69293,0,1,1,0-31.38581H303.325a59.26494,59.26494,0,0,0,59.24709-59.14775V254.19611a50.03153,50.03153,0,0,1,100.06292,0v12.78216a15.71928,15.71928,0,0,1-31.43852,0V254.19611a18.593,18.593,0,0,0-37.18588,0V413.96644A90.71279,90.71279,0,0,1,303.325,504.5Z"/><path fill="#3b3f4d" d="M397.60352 235.63538a18.598 18.598 0 0 0-18.593 18.56073V413.96643A90.71271 90.71271 0 0 1 288.325 504.5h15a90.71271 90.71271 0 0 0 90.68555-90.53357V254.19611a18.57725 18.57725 0 0 1 11.093-16.96991A18.49333 18.49333 0 0 0 397.60352 235.63538zM412.60352 204.24957a50.28685 50.28685 0 0 0-7.5.56269A50.05046 50.05046 0 0 1 447.635 254.19611v12.78216a15.68607 15.68607 0 0 1-8.21924 13.79437A15.72823 15.72823 0 0 0 462.635 266.97827V254.19611A50.046 50.046 0 0 0 412.60352 204.24957z"/><path fill="#4a4f60" d="M190.83838,52.8479q3.62932-.09119,7.4834,0a149.4142,149.4142,0,0,1,18.78161,1.66382,7.45824,7.45824,0,0,0,6.91419-2.65491A203.90675,203.90675,0,0,1,274.59033,7.5a204.45328,204.45328,0,0,1,3.0846,78.22949,7.82118,7.82118,0,0,0,.54638,4.26636,120.13739,120.13739,0,0,1,9.34265,38.16174,121.96657,121.96657,0,0,1-9.23083,55.94031,23.20212,23.20212,0,0,0,.74866,19.44287c16.79406,33.05029,35.71655,78.29028,44.672,129.12122,4.94178,28.04919,5.23584,48.646,0,70.21325q-.08166.33655-.16467.67127a84.42441,84.42441,0,0,1-62.1095,61.5907,309.9994,309.9994,0,0,1-145.95678.01831,84.46462,84.46462,0,0,1-62.17578-61.609q-.083-.33473-.16468-.67127c-5.23571-21.56726-4.94177-42.16406,0-70.21325,8.95557-50.83094,27.878-96.07093,44.672-129.12122A23.20212,23.20212,0,0,0,98.603,184.0979a121.96847,121.96847,0,0,1-9.23072-55.94031,120.13473,120.13473,0,0,1,9.34253-38.16174,7.82115,7.82115,0,0,0,.54651-4.26636A204.44679,204.44679,0,0,1,102.346,7.5a204.338,204.338,0,0,1,32.77563,25.22229,203.78884,203.78884,0,0,1,17.82349,19.167,7.45077,7.45077,0,0,0,6.86072,2.66236,172.37862,172.37862,0,0,1,18.80859-1.70374C182.89075,52.696,186.97266,52.71069,190.83838,52.8479Z"/><path fill="#3b3f4d" d="M187.10339 54.51172a7.44962 7.44962 0 0 0 5.94776-1.692c-.73987.00763-1.48645.01-2.21277.0282-3.86572-.13721-7.94763-.15186-12.224 0q-2.47157.0877-4.85779.24292C178.44946 53.38068 182.91077 53.87231 187.10339 54.51172zM105.12158 32.72229a203.78884 203.78884 0 0 1 17.82349 19.167 7.45077 7.45077 0 0 0 6.86072 2.66236 172.37862 172.37862 0 0 1 18.80859-1.70374c1.76-.0625 3.47839-.09039 5.171-.09955a7.46174 7.46174 0 0 1-.84033-.85907 203.78884 203.78884 0 0 0-17.82349-19.167A204.338 204.338 0 0 0 102.346 7.5c-1.35889 5.75757-2.62964 12.26984-3.60645 19.43945Q101.91254 29.69519 105.12158 32.72229zM323.75378 332.662c-8.95544-50.83094-27.87793-96.07093-44.672-129.12122a23.20212 23.20212 0 0 1-.74866-19.44287 121.96657 121.96657 0 0 0 9.23083-55.94031 120.13739 120.13739 0 0 0-9.34265-38.16174 7.82118 7.82118 0 0 1-.54638-4.26636A204.45328 204.45328 0 0 0 274.59033 7.5a204.56278 204.56278 0 0 0-26.39355 19.43945 204.16761 204.16761 0 0 1-.52185 58.79 7.82118 7.82118 0 0 0 .54638 4.26636 120.13739 120.13739 0 0 1 9.34265 38.16174 121.96657 121.96657 0 0 1-9.23083 55.94031 23.20212 23.20212 0 0 0 .74866 19.44287c16.79406 33.05029 35.71655 78.29028 44.672 129.12122 4.94178 28.04919 5.23584 48.646 0 70.21325q-.08166.33655-.16467.67127a84.42441 84.42441 0 0 1-62.1095 61.5907 310.42376 310.42376 0 0 1-58.01232 8.35571c5.45971.26526 10.48291.366 15.00085.366a310.16907 310.16907 0 0 0 73.01147-8.72168 84.42441 84.42441 0 0 0 62.1095-61.5907q.08295-.33473.16467-.67127C328.98962 381.308 328.69556 360.71118 323.75378 332.662z"/><path fill="#3b3f4d" d="M173.47,361.24V488.81a15.72612,15.72612,0,0,1-15.72,15.69H74.43994v-2.41A46.59987,46.59987,0,0,1,121.07007,455.53V381.24a20,20,0,0,1,20-20Z"/><path fill="#4a4f60" d="M188.47,361.24V488.81a15.72612,15.72612,0,0,1-15.72,15.69H89.43994v-2.41A46.59987,46.59987,0,0,1,136.07007,455.53V361.24Z"/><path fill="#3b3f4d" d="M302.5,502.09v2.41H219.18994a15.72612,15.72612,0,0,1-15.72-15.69V361.24h32.4a20,20,0,0,1,20,20v74.29A46.59976,46.59976,0,0,1,302.5,502.09Z"/><path fill="#4a4f60" d="M287.5,502.09v2.41H204.18994a15.72612,15.72612,0,0,1-15.72-15.69V361.24h52.4v94.29A46.59976,46.59976,0,0,1,287.5,502.09Z"/><path fill="#3b3f4d" d="M208.37891,203.89746a27.35315,27.35315,0,0,1-19.91114-8.58008,27.40573,27.40573,0,0,1-47.32226-18.79785,7.5,7.5,0,1,1,15,0,12.41117,12.41117,0,0,0,24.82226,0,7.5,7.5,0,0,1,15,0,12.41118,12.41118,0,0,0,24.82227,0,7.5,7.5,0,0,1,15,0A27.4258,27.4258,0,0,1,208.37891,203.89746Z"/><ellipse cx="148.798" cy="115.241" fill="#f66" rx="15.706" ry="22.213" transform="rotate(-45.144 148.798 115.241)"/><path fill="#ff4e4e" d="M159.91333,104.14459A23.5581,23.5581,0,0,0,138.79,97.69092a23.51429,23.51429,0,0,1,16.81714,33.2442,23.51952,23.51952,0,0,1-5.71228,1.85632,23.67468,23.67468,0,0,0,14.62341-1.85632A23.51607,23.51607,0,0,0,159.91333,104.14459Z"/><ellipse cx="228.138" cy="115.241" fill="#f66" rx="22.213" ry="15.706" transform="rotate(-44.856 228.138 115.241)"/><path fill="#ff4e4e" d="M243.8584,99.54724a23.67822,23.67822,0,0,0-14.26758-1.92816,23.52669,23.52669,0,0,1,6.11353,1.92816,23.52579,23.52579,0,0,1-17.173,33.316,23.53354,23.53354,0,0,0,25.327-33.316Z"/><path fill="#3b3f4d" d="M196.45,361.24V502.46a15.65552,15.65552,0,0,1-7.98-13.65,15.65552,15.65552,0,0,1-7.98,13.65V361.24Z"/></svg>