<svg xmlns="http://www.w3.org/2000/svg" viewBox="0 0 32 32"><g data-name="Layer 2"><path fill="#fcae18" d="M16.55,1.36a15,15,0,0,0,0,30,14.84,14.84,0,0,0,5.74-1.14,15.11,15.11,0,0,0,1.41-.67l.62-.36c.21-.12.41-.26.61-.4l.31-.22A15,15,0,0,0,16.55,1.36Zm7.08,18.88a1,1,0,0,1-1.34.07l-.08-.07-5.66-5.65L10.9,20.24a1,1,0,0,1-1.42,0,1,1,0,0,1,0-1.41l7.07-7.07,5.74,5.73,1.34,1.34A1,1,0,0,1,23.63,20.24Z"/><path fill="#f94819" d="M31.43,16.45a15,15,0,0,1-6.19,12.13l-.31.22c-.2.14-.4.28-.61.4l-.62.36a14.22,14.22,0,0,1-1.41.7V20.32a1,1,0,0,0,1.34-1.48l-1.34-1.34V2.64A15,15,0,0,1,31.43,16.45Z"/><path d="M2.45,16.45h-2a14.93,14.93,0,0,0,.79,4l1.85-.79A12.92,12.92,0,0,1,2.45,16.45Z"/><path d="M15.41.64A15,15,0,0,0,.53,13.82h2a13,13,0,1,1,1.6,8.26l-1.84.79A15,15,0,1,0,15.41.64Z"/><path d="M8.36,18.11,15.43,11l7.07,7.07a1,1,0,0,1,0,1.41h0a1,1,0,0,1-1.41,0l-5.66-5.66L9.77,19.52a1,1,0,0,1-1.41,0h0A1,1,0,0,1,8.36,18.11Z"/></g></svg>